<svg height="270" viewBox="0 0 270 270" width="270" xmlns="http://www.w3.org/2000/svg"><circle cx="135" cy="135" fill="#272361" r="135"/><path d="m146.14 87.94a45 45 0 0 0 -53.24 53.23l-44.82 44.83a9 9 0 1 0 3.38 3l42.79-42.79a45 45 0 0 0 9.34 16l-24.05 24.03a9 9 0 1 0 3.19 3.18l24.05-24.05a45 45 0 0 0 16 9.34l-11.43 11.43a9 9 0 1 0 3.26 3.1l13.18-13.18a45 45 0 0 0 18.35-88.12z" fill="#6eceb2"/><circle cx="152.46" cy="100.5" fill="#fff" r="13.5"/><circle cx="150.46" cy="102.5" fill="#272361" r="4.5"/><circle cx="173.96" cy="117" fill="#fff" r="9"/><circle cx="171.96" cy="117" fill="#272361" r="3"/><path d="m140.2 34.39a4.45 4.45 0 0 1 0 6.36 4.62 4.62 0 0 1 -6.47 0 4.45 4.45 0 0 1 0-6.36 4.62 4.62 0 0 1 6.47 0zm-66.26 27.99a4.45 4.45 0 0 1 0 6.36 4.62 4.62 0 0 1 -6.47 0 4.45 4.45 0 0 1 0-6.36 4.62 4.62 0 0 1 6.47 0zm132.51 0a4.45 4.45 0 0 1 0 6.36 4.62 4.62 0 0 1 -6.47 0 4.45 4.45 0 0 1 0-6.36 4.62 4.62 0 0 1 6.47 0zm28 66.26a4.45 4.45 0 0 1 0 6.36 4.62 4.62 0 0 1 -6.47 0 4.45 4.45 0 0 1 0-6.36 4.62 4.62 0 0 1 6.47 0zm-34.45 72.98a4.45 4.45 0 0 1 0-6.36 4.62 4.62 0 0 1 6.47 0 4.45 4.45 0 0 1 0 6.36 4.62 4.62 0 0 1 -6.47 0z" fill="#6eceb2"/></svg>