<svg enable-background="new 0 0 361.9 91.8" viewBox="0 0 361.9 91.8" xmlns="http://www.w3.org/2000/svg"><path fill="#3a3b40" d="m160.7 32c-2.3-1.3-5-2-8-2-3.1 0-5.8.7-8.1 2s-4.1 3.2-5.4 5.6c-1.2 2.4-1.9 5.2-1.9 8.3s.6 5.9 1.9 8.3 3.1 4.3 5.4 5.6 5 2 8.1 2c3 0 5.7-.7 8-2s4.1-3.2 5.4-5.6 1.9-5.2 1.9-8.3-.6-5.9-1.9-8.3-3.1-4.3-5.4-5.6zm0 19.7c-.9 1.5-2.1 2.7-3.5 3.4-2.9 1.4-6.2 1.4-9 0-1.4-.7-2.6-1.9-3.5-3.4s-1.4-3.5-1.4-5.9.5-4.3 1.4-5.9c.9-1.5 2.1-2.7 3.5-3.4s2.9-1.1 4.5-1.1c1.5 0 3 .4 4.5 1.1 1.4.7 2.6 1.8 3.5 3.4.9 1.5 1.4 3.5 1.4 5.9s-.5 4.4-1.4 5.9z"/><path fill="#3a3b40" d="m212.2 30.3c-.6 0-1.2.2-1.7.5s-.9.8-1 1.3l-6.5 21.6-6.5-21c-.2-.7-.6-1.3-1.2-1.7-1.2-.9-2.8-.9-4 0-.6.4-1 1-1.2 1.7l-6.5 21-6.6-21.6c-.2-.5-.5-1-1-1.3s-1.1-.5-1.7-.5c-.8 0-1.5.3-2.1.9s-.9 1.3-.9 2.1c0 .3.1.7.2 1.1l8.3 24.4c.3.8.7 1.4 1.4 1.9 1.4 1 3.2 1 4.6 0 .7-.5 1.2-1.2 1.5-2l5.9-18.4 5.9 18.5c.3.8.8 1.5 1.5 2s1.5.8 2.3.8 1.6-.3 2.3-.8 1.1-1.2 1.4-1.9l8.3-24.4c.1-.4.2-.7.2-1.1 0-.8-.3-1.5-.9-2.1-.4-.7-1.1-1-2-1z"/><path fill="#3a3b40" d="m223.8 17.4c-.8 0-1.5.3-2.1.9s-.9 1.3-.9 2.1v38c0 .8.3 1.5.9 2.1s1.3.9 2.1.9 1.5-.3 2.1-.9.9-1.3.9-2.1v-38c0-.9-.3-1.6-.9-2.2-.5-.5-1.2-.8-2.1-.8z"/><path fill="#3a3b40" d="m238.6 18.3h-.4c-.9 0-1.7.3-2.3 1-.6.6-1 1.4-1 2.3v.2c0 .9.3 1.7 1 2.3.6.6 1.4 1 2.3 1h.4c.9 0 1.7-.3 2.3-1 .6-.6 1-1.4 1-2.3v-.2c0-.9-.3-1.7-1-2.3-.6-.7-1.4-1-2.3-1z"/><path fill="#3a3b40" d="m238.4 30.3c-.8 0-1.5.3-2.1.9s-.9 1.3-.9 2.1v25.1c0 .8.3 1.5.9 2.1s1.3.9 2.1.9 1.5-.3 2.1-.9.9-1.3.9-2.1v-25.1c0-.9-.3-1.6-.9-2.2-.5-.5-1.3-.8-2.1-.8z"/><path fill="#3a3b40" d="m272.7 31.9c-2.2-1.3-4.6-1.9-7-1.9-3.7 0-6.9 1.3-9.7 4v-.8c0-.8-.3-1.5-.9-2.1s-1.3-.9-2.1-.9-1.5.3-2.1.9-.9 1.3-.9 2.1v38.6c0 .8.3 1.5.9 2.1s1.3.9 2.1.9c.9 0 1.6-.3 2.2-.9s.9-1.3.9-2.2v-14c2.8 2.7 6 4 9.7 4 2.5 0 4.8-.6 7-1.9s4-3.1 5.4-5.5 2.1-5.2 2.1-8.4-.7-6-2.1-8.4c-1.4-2.5-3.3-4.4-5.5-5.6zm-16.7 7.9c1.2-1.3 2.5-2.3 4-3 1.5-.8 3.2-1.2 4.9-1.2 2.8 0 5.1.9 6.7 2.7 1.7 1.8 2.5 4.3 2.5 7.6s-.9 5.8-2.5 7.6c-1.7 1.8-4 2.7-6.7 2.7-1.7 0-3.4-.4-4.9-1.2s-2.9-1.8-4-3z"/><path fill="#3a3b40" d="m309.3 31.6c-1.6-1-3.6-1.6-5.8-1.6-2.4 0-4.5.5-6.3 1.5-1.5.9-3 2-4.3 3.4v-14.5c0-.8-.3-1.5-.9-2.1s-1.3-.9-2.1-.9-1.5.3-2.1.9-.9 1.3-.9 2.1v38c0 .8.3 1.5.9 2.1s1.3.9 2.1.9 1.5-.3 2.1-.9.9-1.3.9-2.1v-17.4c1.3-1.6 2.7-3 4.2-3.9 1.5-1 3.2-1.5 5.1-1.5 4.1 0 6.1 2.2 6.1 6.8v16.1c0 .8.3 1.5.9 2.1s1.3.9 2.1.9 1.5-.3 2.1-.9.9-1.3.9-2.1v-16.7c0-2.1-.4-4.1-1.3-5.9-.8-1.8-2.1-3.3-3.7-4.3z"/><path fill="#3a3b40" d="m347.3 31.2c-.6-.6-1.3-.9-2.1-.9-1.3 0-2.2.7-2.8 2l-8.9 21.5-8.7-21.7c-.2-.5-.6-1-1.1-1.3s-1.1-.5-1.7-.5c-.8 0-1.5.3-2.1.9s-.9 1.3-.9 2.1c0 .4.1.8.3 1.2l11 26.7-3.8 9.7c-.1.3-.2.7-.2 1 0 .8.3 1.5.8 2 .5.6 1.2.9 2 .9 1.2 0 2.2-.7 2.8-2l16-38.5c.1-.3.2-.7.2-1.1 0-.7-.3-1.4-.8-2z"/><path fill="#3a3b40" d="m42.4 26.8c-10.3 0-18.7 8.4-18.7 18.7 0 4 1.3 7.7 3.4 10.8l-12.6 12.7c-.8.8-.8 2.2 0 3.1.4.4 1 .6 1.5.6.6 0 1.1-.2 1.5-.6l12.5-12.5c3.3 2.9 7.6 4.7 12.4 4.7 10.3 0 18.7-8.4 18.7-18.7 0-10.4-8.4-18.8-18.7-18.8zm0 33.1c-7.9 0-14.4-6.5-14.4-14.4s6.5-14.4 14.4-14.4 14.4 6.5 14.4 14.4c0 8-6.5 14.4-14.4 14.4z"/><path fill="#3a3b40" d="m42.3 69.7c-4.9 0-9.5-1.5-13.3-4l-3.2 3.2c4.6 3.3 10.3 5.2 16.4 5.2 7.2 0 13.9-2.7 18.9-7.2l-1.9-4.2c-4.3 4.3-10.3 7-16.9 7z"/><path fill="#3a3b40" d="m88 16.9c-9.2 0-17.4 4.4-22.6 11.1-5.2-6.8-13.4-11.1-22.6-11.1-15.7 0-28.5 12.8-28.5 28.5 0 5.1 1.4 9.9 3.7 14.1l3.2-3.2c-1.7-3.3-2.6-7-2.6-10.9 0-13.3 10.8-24.1 24.2-24.1 8.3 0 15.7 4.2 20 10.7 1 1.6 1.9 3.2 2.6 5 .7-1.8 1.5-3.5 2.6-5 4.3-6.4 11.7-10.7 20-10.7 13.3 0 24.2 10.8 24.2 24.1s-10.8 24.2-24.2 24.2c-6.6 0-12.6-2.7-17-7l-1.9 4.2c5 4.5 11.6 7.2 18.9 7.2 15.7 0 28.5-12.8 28.5-28.5.1-15.8-12.7-28.6-28.5-28.6z"/><ellipse fill="#3a3b40" cx="42.5" cy="45.4" rx="6.8" ry="6.8" transform="matrix(.2298 -.9732 .9732 .2298 -11.4644 76.3311)"/><ellipse fill="#3a3b40" cx="88.4" cy="45.4" rx="6.8" ry="6.8" transform="matrix(.9732 -.2298 .2298 .9732 -8.0688 21.5179)"/><path d="m73.1 53.4h-15.9c-1 0-1.7 1-1.3 2l3.4 7.6 2 4.3 2.6 5.7c.5 1.1 2 1.1 2.5 0l2.6-5.6 2-4.3 3.4-7.6c.4-1-.3-2.1-1.3-2.1z" fill="#fb9838"/><div xmlns="" id="divScriptsUsed" style="display: none"/><script xmlns="" id="globalVarsDetection" src="moz-extension://efcfe2d9-43d5-2c47-b598-26c481844ae5/js/wrs_env.js"/></svg>